<svg width="429" height="113" viewBox="0 0 429 113" fill="none" xmlns="http://www.w3.org/2000/svg">
<g clip-path="url(#clip0_22_129)">
<path fill-rule="evenodd" clip-rule="evenodd" d="M105.12 94.78L105 94.9L90.01 109.41C85.92 113.37 79.4 113.3 75.4 109.25L34.21 67.58L28.16 73.73C23.57 78.41 16.05 78.47 11.38 73.88L11.31 73.81L3.05 65.56C-1.01 61.51 -1.02 54.93 3.04 50.87H3.05L17.79 36.14C21.84 32.09 28.42 32.09 32.47 36.14L32.53 36.2L41.65 45.47C36.72 44.62 31.87 45.42 27.2 47.82C24.53 49.2 21.97 51.03 19.42 53.4C18.82 53.28 18.18 53.24 17.54 53.3C13.98 53.65 11.38 56.8 11.72 60.36C12.06 63.91 15.22 66.52 18.78 66.17C22.33 65.83 24.94 62.67 24.59 59.12C24.56 58.79 24.5 58.47 24.43 58.16C27.04 55.74 29.61 54.1 32.36 53.06C35.55 51.86 38.75 51.73 42.15 52.65C46.49 53.82 50.1 56.47 53.07 58.91C54.85 60.38 56.86 61.92 59.14 63.27L74.93 79.34C79.53 84.02 87.04 84.08 91.72 79.49L91.75 79.45L98.14 73.12L105.11 80.08C109.17 84.13 109.17 90.71 105.12 94.77V94.78Z" fill="white"/>
<path fill-rule="evenodd" clip-rule="evenodd" d="M105.24 61.47H105.23L90.49 76.2C86.43 80.25 79.85 80.25 75.8 76.19L75.74 76.13L66.12 66.34C68.75 67.09 71.35 67.33 73.89 67.09C76.59 66.83 79.23 66.01 81.79 64.64C84.27 63.3 86.57 61.54 88.92 59.16C89.5 59.27 90.11 59.3 90.74 59.24C94.29 58.9 96.89 55.74 96.55 52.19C96.21 48.63 93.05 46.03 89.49 46.37C85.94 46.72 83.34 49.88 83.68 53.43C83.71 53.79 83.78 54.15 83.87 54.49C82.15 56.22 80.46 57.52 78.66 58.52C75.79 60.1 72.88 60.62 69.75 60.14C66.8 59.67 63.95 58.44 61.03 56.35C59.72 55.42 58.4 54.4 57.12 53.42C55.78 52.38 54.4 51.32 52.97 50.3C51.13 48.99 49.2 47.92 47.21 47.1L33.34 32.99C28.74 28.31 21.23 28.25 16.56 32.84L16.52 32.88L10.13 39.21L3.15999 32.25C-0.90001 28.2 -0.90001 21.62 3.14999 17.56L3.26999 17.44L18.27 2.91997C22.36 -1.04003 28.87 -0.96003 32.87 3.08997L74.06 44.76L80.11 38.61C84.7 33.93 92.22 33.87 96.89 38.46L96.96 38.53L105.23 46.78C109.28 50.83 109.29 57.41 105.24 61.47Z" fill="white"/>
<path d="M141.33 101.24H129.62V69.91C129.62 52.57 143.61 38.58 160.95 38.58C178.29 38.58 192.28 52.57 192.28 69.91V101.24H180.57V69.91C180.57 59.11 171.75 50.29 160.95 50.29C150.15 50.29 141.33 59.11 141.33 69.91V101.24Z" fill="white"/>
<path d="M250.52 38.58H262.23V69.91C262.23 87.25 248.24 101.24 230.9 101.24C213.56 101.24 199.57 87.25 199.57 69.91V38.58H211.28V69.91C211.28 80.71 220.1 89.53 230.9 89.53C241.7 89.53 250.52 80.71 250.52 69.91V38.58Z" fill="white"/>
<path d="M271.35 69.91C271.35 52.73 285.49 38.58 302.68 38.58C315.91 38.58 327.16 46.79 331.73 58.2H318.35C314.85 53.49 309.07 50.44 302.69 50.44C291.89 50.44 283.22 59.11 283.22 69.91C283.22 80.71 291.89 89.53 302.69 89.53C309.08 89.53 314.86 86.49 318.35 81.77H331.73C327.17 93.18 315.91 101.24 302.68 101.24C285.5 101.24 271.35 87.25 271.35 69.91Z" fill="white"/>
<path d="M386.04 41.8C386.91 42.24 387.76 42.71 388.59 43.21C387.77 42.7 386.91 42.23 386.04 41.8ZM386.04 41.8C385.17 41.36 384.28 40.97 383.36 40.63C384.27 40.98 385.17 41.37 386.04 41.8Z" fill="white"/>
<path d="M416.63 7.25H428.49V101.24H416.63V7.25Z" fill="white"/>
<path d="M382.58 99.47C385.12 98.59 387.5 97.39 389.69 95.91C387.48 97.37 385.09 98.58 382.58 99.47Z" fill="white"/>
<path d="M391.8 38.58V45.42C391.32 45.05 390.83 44.69 390.33 44.35C389.76 43.95 389.18 43.57 388.59 43.21C387.76 42.71 386.91 42.24 386.04 41.8C386.04 41.8 386.04 41.81 386.04 41.8C385.17 41.37 384.27 40.98 383.36 40.63C382.75 40.4 382.13 40.19 381.5 39.99C380.66 39.73 379.81 39.5 378.94 39.31C378.5 39.21 378.07 39.13 377.63 39.05C377.19 38.97 376.75 38.91 376.3 38.85C375.86 38.79 375.41 38.74 374.96 38.7H374.94C374.57 38.67 374.19 38.64 373.81 38.62C373.7 38.62 373.59 38.61 373.48 38.61C373.05 38.59 372.62 38.58 372.19 38.58C354.85 38.58 340.86 52.57 340.86 69.91C340.86 87.25 354.85 101.24 372.19 101.24C372.62 101.24 373.05 101.23 373.48 101.21C373.59 101.21 373.7 101.21 373.81 101.21C374.19 101.19 374.57 101.16 374.94 101.13H374.96C375.41 101.09 375.86 101.04 376.3 100.98C376.75 100.92 377.19 100.86 377.63 100.78C378.07 100.71 378.5 100.62 378.94 100.52C379.81 100.33 380.66 100.1 381.5 99.84C381.86 99.73 382.23 99.61 382.59 99.48C385.1 98.59 387.49 97.38 389.7 95.92C389.94 95.76 390.19 95.59 390.43 95.42C390.6 95.29 390.77 95.17 390.95 95.04C391.24 94.84 391.53 94.62 391.81 94.4V101.25H403.52V38.58H391.81H391.8ZM372.18 89.53C361.38 89.53 352.56 80.71 352.56 69.91C352.56 59.11 361.38 50.29 372.18 50.29C382.98 50.29 391.8 59.11 391.8 69.91C391.8 80.71 382.98 89.53 372.18 89.53Z" fill="white"/>
</g>
<defs>
<clipPath id="clip0_22_129">
<rect width="428.49" height="112.33" fill="white"/>
</clipPath>
</defs>
</svg>
